# xmcd CD database file
# Copyright (C) 1995-1998 Ti Kan
#
# Track frame offsets:
#	150
#	11443
#	29873
#	51885
#	81010
#	96473
#	127305
#	144788
#	159335
#	173908
#	193920
#	199315
#	220890
#
# Disc length: 3124 seconds
#
# Revision: 1
# Processed by: cddbd v1.4b41PL1 Copyright (c) Steve Scherf et al.
# Submitted via: CDex 1.40Beta0
#
DISCID=bf0c320d
DTITLE=Back Porch Blues - Back to Basics
DYEAR=1992
DGENRE=Blues
TTITLE0=Grinning in Your Face
TTITLE1=Dirty Dealer
TTITLE2=Dark of Night Blues
TTITLE3=Boogie Woman
TTITLE4=Ain't I Lucky
TTITLE5=Mean Old Man
TTITLE6=See See Rider
TTITLE7=Bring It on Home to Me
TTITLE8=Black Cat Blues
TTITLE9=Baby Please Don't Go
TTITLE10=NW Line
TTITLE11=Ritzville
TTITLE12=Charley Patton Tribute
EXTD=YEAR: 1992 ID3G:   0
EXTT0=
EXTT1=
EXTT2=
EXTT3=
EXTT4=
EXTT5=
EXTT6=
EXTT7=
EXTT8=
EXTT9=
EXTT10=
EXTT11=
EXTT12=
PLAYORDER=
